<svg xmlns="http://www.w3.org/2000/svg" xmlns:xlink="http://www.w3.org/1999/xlink" width="12" height="12" version="1.1" viewBox="0 0 12 12"><title>!</title><desc>Created with Sketch.</desc><g id="Dashboards" fill="none" fill-rule="evenodd" stroke="none" stroke-width="1"><g id="Send-Review" transform="translate(-146.000000, -251.000000)"><g id="!" transform="translate(147.000000, 252.000000)"><path id="Stroke-1" fill="#FFF" stroke="#FFF" stroke-width=".5" d="M10,5 C10,7.76142857 7.76142857,10 5,10 C2.23857143,10 0,7.76142857 0,5 C0,2.23857143 2.23857143,0 5,0 C7.76142857,0 10,2.23857143 10,5 Z"/><path id="Stroke-3" fill="#283547" d="M3.85714286,7.74285714 L3.85714286,7.05714286 L4.54285714,6.82857143 L4.54285714,4.77142857 L3.85714286,4.54285714 L3.85714286,3.85714286 L5.68571429,3.85714286 L5.68571429,6.82857143 C5.99131429,6.93028571 6.37142857,7.05714286 6.37142857,7.05714286 L6.37142857,7.74285714 L3.85714286,7.74285714 Z"/><path id="Stroke-5" fill="#283547" d="M4.31428571,2.48571429 C4.31428571,2.86445714 4.62148571,3.17142857 5,3.17142857 C5.37874286,3.17142857 5.68571429,2.86445714 5.68571429,2.48571429 C5.68571429,2.1072 5.37874286,1.8 5,1.8 C4.62148571,1.8 4.31428571,2.1072 4.31428571,2.48571429 Z"/></g></g></g></svg>