<svg xmlns="http://www.w3.org/2000/svg" xmlns:xlink="http://www.w3.org/1999/xlink" width="22" height="22" version="1.1" viewBox="0 0 22 22"><title>person</title><desc>Created with Sketch.</desc><g id="Dashboards" fill="none" fill-rule="evenodd" stroke="none" stroke-width="1"><g id="Success-Transaction-history---Details" stroke="#FFF" transform="translate(-30.000000, -497.000000)"><g id="person" transform="translate(31.000000, 498.000000)"><path id="Stroke-1" d="M3.62935294,17.7056471 C3.99405882,15.588 5.38817647,13.8232941 7.28229412,12.9468235"/><path id="Stroke-3" d="M12.7177059,12.9469412 C13.4118235,13.2704706 14.0412353,13.7116471 14.5765294,14.2469412 C15.5000588,15.1704706 16.1412353,16.3651765 16.3706471,17.7057647"/><path id="Stroke-5" d="M20,10 C20,15.5229412 15.5229412,20 10,20 C4.47705882,20 0,15.5229412 0,10 C0,4.47705882 4.47705882,0 10,0 C15.5229412,0 20,4.47705882 20,10 Z"/><path id="Stroke-7" d="M14.1176471,9.41176471 C14.1176471,12.0105882 12.2741176,14.1176471 10,14.1176471 C7.72588235,14.1176471 5.88235294,12.0105882 5.88235294,9.41176471 C5.88235294,6.81294118 7.72588235,4.70588235 10,4.70588235 C12.2741176,4.70588235 14.1176471,6.81294118 14.1176471,9.41176471 Z"/></g></g></g></svg>