<svg xmlns="http://www.w3.org/2000/svg" width="25" height="22" fill="none" viewBox="0 0 25 22"><g filter="url(#filter0_i)"><path fill="#78808D" d="M18.5 0.5H6.5V8.5H18.5V0.5ZM16.5 6.5H8.5V2.5H16.5V6.5ZM0.5 21.5H6.5V15.5H0.5V21.5ZM2.5 17.5H4.5V19.5H2.5V17.5ZM9.5 21.5H15.5V15.5H9.5V21.5ZM11.5 17.5H13.5V19.5H11.5V17.5ZM18.5 15.5V21.5H24.5V15.5H18.5ZM22.5 19.5H20.5V17.5H22.5V19.5ZM4.5 12.5H11.5V14.5H13.5V12.5H20.5V14.5H22.5V10.5H2.5V14.5H4.5V12.5Z"/></g><defs><filter id="filter0_i" width="24" height="22" x=".5" y=".5" color-interpolation-filters="sRGB" filterUnits="userSpaceOnUse"><feFlood flood-opacity="0" result="BackgroundImageFix"/><feBlend in="SourceGraphic" in2="BackgroundImageFix" mode="normal" result="shape"/><feColorMatrix in="SourceAlpha" result="hardAlpha" type="matrix" values="0 0 0 0 0 0 0 0 0 0 0 0 0 0 0 0 0 0 127 0"/><feOffset dy="1"/><feGaussianBlur stdDeviation="1"/><feComposite in2="hardAlpha" k2="-1" k3="1" operator="arithmetic"/><feColorMatrix type="matrix" values="0 0 0 0 0.352941 0 0 0 0 0.396078 0 0 0 0 0.443137 0 0 0 0.25 0"/><feBlend in2="shape" mode="normal" result="effect1_innerShadow"/></filter></defs></svg>