<svg xmlns="http://www.w3.org/2000/svg" xmlns:xlink="http://www.w3.org/1999/xlink" width="29" height="22" version="1.1" viewBox="0 0 29 22"><title>exchange-green</title><desc>Created with Sketch.</desc><g id="Symbols" fill="none" fill-rule="evenodd" stroke="none" stroke-width="1"><g id="menu/exchange" fill="#41EAD4" transform="translate(-108.000000, -13.000000)"><g id="Group" transform="translate(92.000000, 13.000000)"><g id="exchange-green" transform="translate(16.000000, 0.000000)"><path id="Fill-1" d="M22.8805364,4.54545454e-06 L22.8805364,2.46005 L17.3909909,2.46005 L4.79953636,15.0515045 L-9.09090909e-06,15.0515045 L-9.09090909e-06,19.5269591 L6.65330909,19.5269591 L19.2444909,6.93555 L22.8805364,6.93555 L22.8805364,9.39559545 L29.0625364,4.69777727 L22.8805364,4.54545454e-06 Z M0.851627273,15.9028682 L5.15217273,15.9028682 L17.7434455,3.31141364 L23.7319,3.31141364 L23.7319,1.71641364 L27.6553545,4.69777727 L23.7319,7.67950455 L23.7319,6.08432273 L18.8920818,6.08432273 L6.30067273,18.6756409 L0.851627273,18.6756409 L0.851627273,15.9028682 Z"/><polygon id="Fill-2" points="0 2.46 0 6.936 4.8 6.936 8.055 10.191 8.657 9.589 5.152 6.084 .852 6.084 .852 3.311 6.301 3.311 10.617 7.628 11.219 7.026 6.653 2.46"/><polygon id="Fill-3" points="15.387 12.398 18.892 15.903 23.732 15.903 23.732 14.308 27.655 17.289 23.732 20.271 23.732 18.676 17.743 18.676 13.427 14.359 12.825 14.961 17.391 19.527 22.881 19.527 22.881 21.987 29.063 17.289 22.881 12.591 22.881 15.051 19.244 15.051 15.99 11.796"/><path id="Fill-4" d="M20.701,5.372 L21.5525909,5.372 L21.5525909,4.272 L20.701,4.272 L20.701,5.372 Z M22.1202273,5.372 L22.9715909,5.372 L22.9715909,4.272 L22.1202273,4.272 L22.1202273,5.372 Z"/></g></g></g></g></svg>