<svg xmlns="http://www.w3.org/2000/svg" width="23" height="24" fill="none" viewBox="0 0 23 24"><g filter="url(#filter0_i)"><path fill="#78808D" d="M15.5 0.5H13.5V2.5H12.5V18.5H13.5V20.5H15.5V18.5H16.5V2.5H15.5V0.5Z"/><path fill="#78808D" d="M22.5 5.5H21.5V3.5H19.5V5.5H18.5V11.5H19.5V13.5H21.5V11.5H22.5V5.5Z"/><path fill="#78808D" d="M4.5 8.5H3.5V6.5H1.5V8.5H0.5V14.5H1.5V16.5H3.5V14.5H4.5V8.5Z"/><path fill="#78808D" d="M9.5 13.5H7.5V15.5H6.5V21.5H7.5V23.5H9.5V21.5H10.5V15.5H9.5V13.5Z"/></g><defs><filter id="filter0_i" width="22" height="24" x=".5" y=".5" color-interpolation-filters="sRGB" filterUnits="userSpaceOnUse"><feFlood flood-opacity="0" result="BackgroundImageFix"/><feBlend in="SourceGraphic" in2="BackgroundImageFix" mode="normal" result="shape"/><feColorMatrix in="SourceAlpha" result="hardAlpha" type="matrix" values="0 0 0 0 0 0 0 0 0 0 0 0 0 0 0 0 0 0 127 0"/><feOffset dy="1"/><feGaussianBlur stdDeviation="1"/><feComposite in2="hardAlpha" k2="-1" k3="1" operator="arithmetic"/><feColorMatrix type="matrix" values="0 0 0 0 0.352941 0 0 0 0 0.396078 0 0 0 0 0.443137 0 0 0 0.25 0"/><feBlend in2="shape" mode="normal" result="effect1_innerShadow"/></filter></defs></svg>