<svg xmlns="http://www.w3.org/2000/svg" xmlns:xlink="http://www.w3.org/1999/xlink" width="15" height="15" version="1.1" viewBox="0 0 15 15"><title>link to external</title><desc>Created with Sketch.</desc><g id="Setting" fill="none" fill-rule="evenodd" stroke="none" stroke-width="1"><g id="Settings---Main" fill="#C9C9C9" transform="translate(-326.000000, -685.000000)"><g id="link-to-external" transform="translate(326.000000, 685.000000)"><polygon id="Fill-1" points=".138 14.2 .8 14.863 11.112 4.55 10.45 3.887"/><polygon id="Fill-2" points="11.25 7.5 10.313 7.5 10.313 4.688 7.5 4.688 7.5 3.75 11.25 3.75"/><path id="Fill-3" d="M13.125,15 L3.75,15 L3.75,14.0625 L13.125,14.0625 C13.6420313,14.0625 14.0625,13.6420313 14.0625,13.125 L14.0625,1.875 C14.0625,1.35796875 13.6420313,0.9375 13.125,0.9375 L1.875,0.9375 C1.35796875,0.9375 0.9375,1.35796875 0.9375,1.875 L0.9375,11.25 L0,11.25 L0,1.875 C0,0.8409375 0.8409375,0 1.875,0 L13.125,0 C14.1590625,0 15,0.8409375 15,1.875 L15,13.125 C15,14.1590625 14.1590625,15 13.125,15"/></g></g></g></svg>